<svg xmlns="http://www.w3.org/2000/svg" viewBox="0 0 1370.69 370.61"><g id="Camada_2" data-name="Camada 2"><g id="Camada_1-2" data-name="Camada 1"><path d="M486.88,5.42h66.31q18.38,0,31.82,6.28a59.14,59.14,0,0,1,22,17.13,73.41,73.41,0,0,1,12.66,25.43,113.43,113.43,0,0,1,4.14,31.14,113.32,113.32,0,0,1-4.14,31.14A73.24,73.24,0,0,1,607,142a59.06,59.06,0,0,1-22,17.14q-13.44,6.27-31.82,6.27H486.88Zm28,137.11h27.56q16.35,0,26.77-4.37a39.16,39.16,0,0,0,16.36-12.09,43.87,43.87,0,0,0,8.06-18.15,112.44,112.44,0,0,0,2.13-22.52,112.34,112.34,0,0,0-2.13-22.51,43.75,43.75,0,0,0-8.06-18.15,39.26,39.26,0,0,0-16.36-12.1q-10.41-4.37-26.77-4.37H514.88Z"/><path d="M712.26,1.61q17.91,0,32.15,6.72a72.09,72.09,0,0,1,24.08,18.15,80.8,80.8,0,0,1,15.12,26.66,98.09,98.09,0,0,1,5.27,32.26,98.77,98.77,0,0,1-5.27,32.49,80.7,80.7,0,0,1-15.12,26.66,70.6,70.6,0,0,1-24.08,18q-14.24,6.61-32.15,6.61t-32.15-6.61a70.54,70.54,0,0,1-24.09-18,80.7,80.7,0,0,1-15.12-26.66,98.77,98.77,0,0,1-5.26-32.49,98.08,98.08,0,0,1,5.26-32.26A80.8,80.8,0,0,1,656,26.48,72,72,0,0,1,680.11,8.33Q694.33,1.61,712.26,1.61Zm0,22.86q-12.78,0-22.07,5.15A43.27,43.27,0,0,0,675.07,43.4,62,62,0,0,0,666.44,63a91,91,0,0,0,0,44.81,62,62,0,0,0,8.63,19.6,43.27,43.27,0,0,0,15.12,13.78q9.3,5.16,22.07,5.15t22.06-5.15a43.39,43.39,0,0,0,15.13-13.78,62.26,62.26,0,0,0,8.62-19.6,91,91,0,0,0,0-44.81,62.26,62.26,0,0,0-8.62-19.6,43.39,43.39,0,0,0-15.13-13.78Q725,24.46,712.26,24.47Z"/><path d="M801.65,135.14h31.14v30.24H801.65Z"/><path d="M858.77,5.42h66.32q18.38,0,31.81,6.28a59.17,59.17,0,0,1,22,17.13,73.59,73.59,0,0,1,12.66,25.43,113.43,113.43,0,0,1,4.14,31.14,113.32,113.32,0,0,1-4.14,31.14A73.41,73.41,0,0,1,978.86,142a59.1,59.1,0,0,1-22,17.14q-13.44,6.27-31.81,6.27H858.77Zm28,137.11h27.56q16.35,0,26.77-4.37a39.13,39.13,0,0,0,16.35-12.09,43.75,43.75,0,0,0,8.07-18.15,112.44,112.44,0,0,0,2.13-22.52,112.34,112.34,0,0,0-2.13-22.51,43.64,43.64,0,0,0-8.07-18.15,39.23,39.23,0,0,0-16.35-12.1q-10.43-4.37-26.77-4.37H886.78Z"/><path d="M1010.44,5.42H1125.6v24.2h-87.15V71.51h80.65V94.36h-80.65v46.83h88.72v24.19H1010.44Z"/><path d="M1135.68,5.42h29.12L1204.91,132h.44l41-126.58h28.46l-54.67,160H1189Z"/><path d="M505.25,312.08a35.65,35.65,0,0,0,3.14,15.68,28.35,28.35,0,0,0,8.73,10.65,37.08,37.08,0,0,0,12.89,6,62.17,62.17,0,0,0,15.79,1.91,50.67,50.67,0,0,0,15.68-2.13A31.68,31.68,0,0,0,572,338.74a19.9,19.9,0,0,0,5.83-7.73,23.2,23.2,0,0,0,1.79-8.85q0-9.18-4.14-13.55a23.69,23.69,0,0,0-9.08-6.16,191.77,191.77,0,0,0-19.82-5.94q-11.33-2.81-27.9-7.28a59.88,59.88,0,0,1-17.14-7.06,41,41,0,0,1-10.86-9.74A34.3,34.3,0,0,1,485,261a45.82,45.82,0,0,1-1.68-12.32q0-12.1,5-21a44.73,44.73,0,0,1,13.33-14.67,58.4,58.4,0,0,1,18.82-8.63,82.69,82.69,0,0,1,21.28-2.8,83.86,83.86,0,0,1,23.63,3.25,58.45,58.45,0,0,1,19.5,9.74,48,48,0,0,1,13.33,16,47.44,47.44,0,0,1,4.92,22.07h-28q-1.12-15.45-10.53-21.84t-24-6.39a52.52,52.52,0,0,0-10.08,1,31.8,31.8,0,0,0-9.41,3.36,20.68,20.68,0,0,0-7.06,6.39,17.2,17.2,0,0,0-2.8,10.08q0,8.51,5.26,13.33a34.12,34.12,0,0,0,13.78,7.28q.9.22,7.06,1.9t13.78,3.7l14.9,3.92q7.27,1.91,10.41,2.8A47.13,47.13,0,0,1,590.16,285a43.35,43.35,0,0,1,9.75,9.75,40.35,40.35,0,0,1,5.82,11.76,43,43,0,0,1,1.9,12.55q0,13.44-5.48,23a46.69,46.69,0,0,1-14.45,15.57,63.08,63.08,0,0,1-20.39,8.85,97.42,97.42,0,0,1-23.3,2.8,96,96,0,0,1-25.77-3.36,60.4,60.4,0,0,1-21.06-10.31,50.26,50.26,0,0,1-14.33-17.81q-5.39-10.86-5.6-25.65Z"/><path d="M734.44,256.3a56.94,56.94,0,0,0-4.93-12.77,35.23,35.23,0,0,0-8.07-10.09,36,36,0,0,0-11.53-6.61,45.94,45.94,0,0,0-15.35-2.35q-12.76,0-22.07,5.15a43.27,43.27,0,0,0-15.12,13.78A62.09,62.09,0,0,0,648.75,263a90.69,90.69,0,0,0,0,44.8,62.09,62.09,0,0,0,8.62,19.61,43.15,43.15,0,0,0,15.12,13.77q9.3,5.16,22.07,5.16a39.75,39.75,0,0,0,16.58-3.25,36.84,36.84,0,0,0,12.32-9,42.24,42.24,0,0,0,8.07-13.33,64,64,0,0,0,3.81-16.36h27.33a76.16,76.16,0,0,1-6.16,26.22,64.27,64.27,0,0,1-14.23,20.49,62.62,62.62,0,0,1-21.06,13.33,72.87,72.87,0,0,1-26.66,4.71q-17.92,0-32.15-6.61a70.63,70.63,0,0,1-24.08-18,80.64,80.64,0,0,1-15.13-26.66,102.26,102.26,0,0,1,0-64.75,80.54,80.54,0,0,1,15.13-26.66,71.85,71.85,0,0,1,24.08-18.15q14.22-6.72,32.15-6.72a84.58,84.58,0,0,1,25.32,3.7,65.49,65.49,0,0,1,20.94,10.75,55.9,55.9,0,0,1,14.68,17.14,59.56,59.56,0,0,1,6.94,23.08Z"/><path d="M779.69,205.44h28v63.63h72.82V205.44h28v160h-28V293.26H807.69V365.4h-28Z"/><path d="M1002.38,201.63q17.93,0,32.15,6.72a72,72,0,0,1,24.08,18.15,80.89,80.89,0,0,1,15.13,26.66,102.26,102.26,0,0,1,0,64.75,81,81,0,0,1-15.13,26.66,70.73,70.73,0,0,1-24.08,18q-14.24,6.6-32.15,6.61t-32.15-6.61a70.63,70.63,0,0,1-24.08-18A80.64,80.64,0,0,1,931,317.91a102.26,102.26,0,0,1,0-64.75,80.54,80.54,0,0,1,15.13-26.66,71.85,71.85,0,0,1,24.08-18.15Q984.45,201.63,1002.38,201.63Zm0,22.85q-12.76,0-22.07,5.15a43.27,43.27,0,0,0-15.12,13.78A62.1,62.1,0,0,0,956.56,263a91,91,0,0,0,0,44.8,62.1,62.1,0,0,0,8.63,19.61,43.15,43.15,0,0,0,15.12,13.77q9.3,5.16,22.07,5.16t22.07-5.16a43.32,43.32,0,0,0,15.12-13.77,62.09,62.09,0,0,0,8.62-19.61,90.69,90.69,0,0,0,0-44.8,62.09,62.09,0,0,0-8.62-19.61,43.45,43.45,0,0,0-15.12-13.78Q1015.15,224.49,1002.38,224.48Z"/><path d="M1169.29,201.63q17.91,0,32.14,6.72a72,72,0,0,1,24.09,18.15,80.7,80.7,0,0,1,15.12,26.66,102.08,102.08,0,0,1,0,64.75,80.8,80.8,0,0,1-15.12,26.66,70.77,70.77,0,0,1-24.09,18q-14.22,6.6-32.14,6.61t-32.15-6.61a70.67,70.67,0,0,1-24.09-18,80.8,80.8,0,0,1-15.12-26.66,102.26,102.26,0,0,1,0-64.75,80.7,80.7,0,0,1,15.12-26.66,71.89,71.89,0,0,1,24.09-18.15Q1151.36,201.63,1169.29,201.63Zm0,22.85q-12.78,0-22.07,5.15a43.27,43.27,0,0,0-15.12,13.78,62.1,62.1,0,0,0-8.63,19.61,91,91,0,0,0,0,44.8,62.1,62.1,0,0,0,8.63,19.61,43.15,43.15,0,0,0,15.12,13.77q9.3,5.16,22.07,5.16t22.06-5.16a43.27,43.27,0,0,0,15.13-13.77,62.31,62.31,0,0,0,8.62-19.61,91,91,0,0,0,0-44.8,62.31,62.31,0,0,0-8.62-19.61,43.39,43.39,0,0,0-15.13-13.78Q1182.05,224.49,1169.29,224.48Z"/><path d="M1261.36,205.44h28V341.2h81.32v24.2H1261.36Z"/><polygon points="52.95 105.89 52.95 52.95 0 52.95 0 105.89 0 158.83 0 211.78 52.95 211.78 52.95 158.83 52.95 105.89"/><path d="M317.71,105.89h-53V53l0,0L211.81,0l0,0H52.94V52.94H211.81V211.78H52.94v52.94h53v52.95l53,52.94H317.71l53-52.94V158.83Zm0,211.78H158.86V264.72h53l52.93-52.93h0V158.83h53Z"/></g></g></svg>